nColumns=19
nRows=114
DataType=double
version=3
OpenSimVersion=4.1
endheader
time	ground_force_1_vx	ground_force_1_vy	ground_force_1_vz	ground_force_1_px	ground_force_1_py	ground_force_1_pz	ground_force_1_mx	ground_force_1_my	ground_force_1_mz	ground_force_2_vx	ground_force_2_vy	ground_force_2_vz	ground_force_2_px	ground_force_2_py	ground_force_2_pz	ground_force_2_mx	ground_force_2_my	ground_force_2_mz
0	19.6766	277.112	9.62278	0.060417	0.006	-0.222711	0	0.156709	0	0	0	0	0.766821	0	-0.443105	0	0	0
0.01	-8.65937	335.495	17.128	0.0637353	0.006	-0.223742	0	-0.0782526	0	0	0	0	0.766821	0	-0.443105	0	0	0
0.02	-73.1201	439.392	25.4288	0.0734254	0.006	-0.225181	0	0.514106	0	0	0	0	0.766821	0	-0.443105	0	0	0
0.03	-121.429	569.122	26.2909	0.0838025	0.006	-0.223211	0	1.18886	0	0	0	0	0.766821	0	-0.443105	0	0	0
0.04	-139.633	720.52	7.04194	0.0955387	0.006	-0.218618	0	0.645824	0	0	0	0	0.766821	0	-0.443105	0	0	0
0.05	-171.219	799.286	-15.7623	0.105439	0.006	-0.215382	0	-0.81489	0	0	0	0	0.766821	0	-0.443105	0	0	0
0.06	-191.589	799.973	-18.1045	0.11196	0.006	-0.21428	0	-1.07896	0	0	0	0	0.766821	0	-0.443105	0	0	0
0.07	-184.219	779.984	-17.4484	0.117007	0.006	-0.213016	0	-0.378214	0	0	0	0	0.766821	0	-0.443105	0	0	0
0.08	-188.683	782.196	-39.7568	0.122585	0.006	-0.210385	0	-0.979208	0	0	0	0	0.766821	0	-0.443105	0	0	0
0.09	-200.676	815.445	-73.0743	0.128092	0.006	-0.207457	0	-2.29393	0	0	0	0	0.766821	0	-0.443105	0	0	0
0.1	-206.413	866.776	-89.653	0.132176	0.006	-0.206166	0	-1.97334	0	0	0	0	0.766821	0	-0.443105	0	0	0
0.11	-207.321	925.049	-87.0209	0.134296	0.006	-0.20677	0	-0.973491	0	0	0	0	0.766821	0	-0.443105	0	0	0
0.12	-200.218	987.122	-80.8334	0.135118	0.006	-0.207924	0	-0.545981	0	0	0	0	0.766821	0	-0.443105	0	0	0
0.13	-187.737	1036.7	-69.6716	0.135756	0.006	-0.208993	0	0.124121	0	0	0	0	0.766821	0	-0.443105	0	0	0
0.14	-174.37	1063.06	-59.4406	0.13674	0.006	-0.209665	0	0.787458	0	0	0	0	0.766821	0	-0.443105	0	0	0
0.15	-162.788	1067.34	-55.7632	0.138323	0.006	-0.209746	0	1.05989	0	0	0	0	0.766821	0	-0.443105	0	0	0
0.16	-150.833	1054.86	-54.4205	0.140177	0.006	-0.209393	0	1.3142	0	0	0	0	0.766821	0	-0.443105	0	0	0
0.17	-140.121	1037.35	-55.6412	0.142778	0.006	-0.208604	0	1.27088	0	0	0	0	0.766821	0	-0.443105	0	0	0
0.18	-131.729	1014.02	-57.5409	0.145934	0.006	-0.207676	0	1.01609	0	0	0	0	0.766821	0	-0.443105	0	0	0
0.19	-122.551	985.458	-57.1518	0.149274	0.006	-0.206619	0	0.700249	0	0	0	0	0.766821	0	-0.443105	0	0	0
0.2	-112.663	954.483	-55.3589	0.152665	0.006	-0.205624	0	0.479251	0	0	0	0	0.766821	0	-0.443105	0	0	0
0.21	-102.112	923.737	-53.6423	0.15629	0.006	-0.204657	0	0.322343	0	0	0	0	0.766821	0	-0.443105	0	0	0
0.22	-91.9876	889.359	-51.8341	0.159864	0.006	-0.203737	0	0.211694	0	0	0	0	0.766821	0	-0.443105	0	0	0
0.23	-81.8329	852.097	-49.3088	0.163559	0.006	-0.202793	0	0.0283859	0	0	0	0	0.766821	0	-0.443105	0	0	0
0.24	-72.3953	815.292	-46.5317	0.167333	0.006	-0.201878	0	-0.169019	0	0	0	0	0.766821	0	-0.443105	0	0	0
0.25	-64.0717	781.357	-44.0903	0.17123	0.006	-0.201008	0	-0.348865	0	0	0	0	0.766821	0	-0.443105	0	0	0
0.26	-56.5033	752.747	-42.2058	0.175206	0.006	-0.200156	0	-0.449537	0	0	0	0	0.766821	0	-0.443105	0	0	0
0.27	-49.3851	725.815	-40.7486	0.178901	0.006	-0.19938	0	-0.561552	0	0	0	0	0.766821	0	-0.443105	0	0	0
0.28	-42.4271	703.705	-38.414	0.182483	0.006	-0.198678	0	-0.663824	0	0	0	0	0.766821	0	-0.443105	0	0	0
0.29	-36.5372	686.981	-35.8887	0.185815	0.006	-0.198074	0	-0.827144	0	0	0	0	0.766821	0	-0.443105	0	0	0
0.3	-31.4407	674.332	-33.9432	0.18923	0.006	-0.197554	0	-0.99886	0	0	0	0	0.766821	0	-0.443105	0	0	0
0.31	-26.7868	666.168	-32.7072	0.192509	0.006	-0.196913	0	-1.08068	0	0	0	0	0.766821	0	-0.443105	0	0	0
0.32	-22.1787	662.445	-32.5699	0.195435	0.006	-0.196305	0	-1.31291	0	0	0	0	0.766821	0	-0.443105	0	0	0
0.33	-18.28	661.545	-33.1421	0.198461	0.006	-0.195757	0	-1.4282	0	0	0	0	0.766821	0	-0.443105	0	0	0
0.34	-14.534	663.025	-34.111	0.201483	0.006	-0.19526	0	-1.6049	0	0	0	0	0.766821	0	-0.443105	0	0	0
0.35	-10.8032	667.496	-34.8129	0.2045	0.006	-0.194987	0	-1.81754	0	0	0	0	0.766821	0	-0.443105	0	0	0
0.36	-7.30133	674.271	-35.1944	0.20731	0.006	-0.194878	0	-2.07969	0	0	0	0	0.766821	0	-0.443105	0	0	0
0.37	-2.69318	682.434	-35.0571	0.209847	0.006	-0.194768	0	-2.39188	0	0	0	0	0.766821	0	-0.443105	0	0	0
0.38	2.24304	691.635	-35.202	0.212374	0.006	-0.194746	0	-2.75911	0	0	0	0	0.766821	0	-0.443105	0	0	0
0.39	7.40814	702.362	-36.1938	0.21461	0.006	-0.194648	0	-3.08962	0	0	0	0	0.766821	0	-0.443105	0	0	0
0.4	12.0621	714.325	-37.6663	0.217071	0.006	-0.194443	0	-3.37885	0	0	0	0	0.766821	0	-0.443105	0	0	0
0.41	17.7917	730.133	-40.0543	0.219565	0.006	-0.194081	0	-3.81842	0	0	0	0	0.766821	0	-0.443105	0	0	0
0.42	25.3372	747.482	-42.7399	0.222036	0.006	-0.193746	0	-4.2714	0	0	0	0	0.766821	0	-0.443105	0	0	0
0.43	34.3552	768.616	-46.9971	0.224945	0.006	-0.19313	0	-4.5623	0	0	0	0	0.766821	0	-0.443105	0	0	0
0.44	44.7617	794.891	-52.5589	0.22783	0.006	-0.192501	0	-4.88815	0	0	0	0	0.766821	0	-0.443105	0	0	0
0.45	55.4276	827.484	-58.3038	0.231173	0.006	-0.191865	0	-5.08634	0	0	0	0	0.766821	0	-0.443105	0	0	0
0.46	65.2542	862.183	-64.1022	0.23514	0.006	-0.191411	0	-5.25448	0	0	0	0	0.766821	0	-0.443105	0	0	0
0.47	74.8138	897.72	-69.0918	0.239519	0.006	-0.191047	0	-5.50044	0	0	0	0	0.766821	0	-0.443105	0	0	0
0.48	83.0536	932.312	-73.3185	0.244207	0.006	-0.19082	0	-5.82364	0	0	0	0	0.766821	0	-0.443105	0	0	0
0.49	89.8209	968.399	-76.6144	0.248974	0.006	-0.190728	0	-6.21331	0	0	0	0	0.766821	0	-0.443105	0	0	0
0.5	96.7407	1004.24	-78.5599	0.253692	0.006	-0.190745	0	-6.49779	0	0	0	0	0.766821	0	-0.443105	0	0	0
0.51	103.348	1034.73	-80.0095	0.258574	0.006	-0.190834	0	-6.56469	0	0	0	0	0.766821	0	-0.443105	0	0	0
0.52	110.641	1061.63	-80.04	0.262897	0.006	-0.191109	0	-6.45671	0	0	0	0	0.766821	0	-0.443105	0	0	0
0.53	122.36	1087.98	-79.3457	0.266374	0.006	-0.191705	0	-6.18567	0	0	0	0	0.766821	0	-0.443105	0	0	0
0.54	136.07	1108.22	-79.895	0.269398	0.006	-0.192391	0	-5.62618	0	0	0	0	0.766821	0	-0.443105	0	0	0
0.55	152.107	1120.01	-80.9174	0.272224	0.006	-0.193256	0	-4.87773	0	0	0	0	0.766821	0	-0.443105	0	0	0
0.56	168.823	1121.54	-80.2231	0.275035	0.006	-0.1941	0	-4.21275	0	2.61689	2.25831	0.289917	0.766821	0.0006	-0.443105	0	0.252246	0
0.57	185.776	1109.33	-78.1326	0.27776	0.006	-0.195081	0	-3.73934	0	65.9028	67.627	2.5711	0.775033	0.006	-0.384688	0	1.51982	0
0.58	201.599	1084.52	-74.1882	0.280617	0.006	-0.196085	0	-3.38369	0	119.072	215.622	0.0686606	0.789844	0.006	-0.381983	0	0.386757	0
0.59	214.134	1043.98	-68.1229	0.283625	0.006	-0.197154	0	-3.19811	0	42.6408	281.128	-8.13294	0.798597	0.006	-0.380384	0	-0.642691	0
0.6	223.907	983.521	-60.051	0.286795	0.006	-0.198216	0	-2.98769	0	-41.9387	290.817	-16.0141	0.807304	0.006	-0.37994	0	-1.18532	0
0.61	230.736	900.742	-50.293	0.290224	0.006	-0.199267	0	-2.88967	0	-88.3864	346.863	-8.46101	0.816966	0.006	-0.381794	0	-0.608324	0
0.62	232.742	797.577	-38.475	0.293956	0.006	-0.200112	0	-2.96081	0	-83.3358	473.74	9.4757	0.829059	0.006	-0.384593	0	0.977703	0
0.63	222.855	678.574	-25.3143	0.298194	0.006	-0.200852	0	-2.97493	0	-107.223	617.935	37.6587	0.843359	0.006	-0.386955	0	2.88245	0
0.64	199.577	547.668	-10.6201	0.303029	0.006	-0.201469	0	-2.96205	0	-153.274	686.066	44.4794	0.852846	0.006	-0.386981	0	3.05713	0
0.65	160.744	410.446	1.02234	0.30963	0.006	-0.201681	0	-2.8128	0	-156.959	718.536	38.7039	0.859299	0.006	-0.386437	0	1.94067	0
0.66	109.062	285.034	5.88226	0.318702	0.006	-0.201154	0	-2.25706	0	-152.519	762.71	38.5513	0.864671	0.006	-0.385876	0	1.1705	0
0.67	61.882	187.775	4.34875	0.327824	0.006	-0.200136	0	-1.53793	0	-159.195	809.982	44.7769	0.868617	0.006	-0.385239	0	1.97023	0
0.68	34.0195	110.077	0.473021	0.336596	0.006	-0.1981	0	-0.678068	0	-161.621	854.736	52.7496	0.87292	0.006	-0.384817	0	2.05014	0
0.69	18.631	53.4363	-1.41144	0.346047	0.006	-0.193918	0	-0.126246	0	-163.62	885.376	57.373	0.877395	0.006	-0.385019	0	1.49877	0
0.7	4.79889	10.5438	-0.2594	0.363309	0.0024	-0.186777	0	0.020952	0	-165.199	912.689	64.9719	0.88199	0.006	-0.38539	0	1.19885	0
0.71	0	0	0	0.392256	0	-0.185339	0	0	0	-164.94	948.654	73.7152	0.886201	0.006	-0.385834	0	0.830982	0
0.72	0	0	0	0.421051	0	-0.185992	0	0	0	-160.744	981.842	76.3626	0.890367	0.006	-0.386034	0	0.167233	0
0.73	0	0	0	0.449845	0	-0.186645	0	0	0	-155.64	1001.01	73.6389	0.894809	0.006	-0.386118	0	-0.138658	0
0.74	0	0	0	0.47864	0	-0.187297	0	0	0	-149.422	1008.03	68.6111	0.89916	0.006	-0.385846	0	-0.035145	0
0.75	0	0	0	0.507435	0	-0.18795	0	0	0	-141.868	1009.78	64.1327	0.903693	0.006	-0.385842	0	0.145712	0
0.76	0	0	0	0.536229	0	-0.188602	0	0	0	-132.149	1006.55	61.7675	0.90796	0.006	-0.386024	0	0.426282	0
0.77	0	0	0	0.565024	0	-0.189255	0	0	0	-121.948	992.889	61.0504	0.912609	0.006	-0.38627	0	0.603786	0
0.78	0	0	0	0.593819	0	-0.189908	0	0	0	-114.578	966.232	60.3408	0.917757	0.006	-0.386875	0	0.745113	0
0.79	0	0	0	0.622613	0	-0.19056	0	0	0	-107.651	930.999	59.6161	0.92354	0.006	-0.387461	0	0.863674	0
0.8	0	0	0	0.651408	0	-0.191213	0	0	0	-101.181	893.447	57.2586	0.929664	0.006	-0.387754	0	1.03223	0
0.81	0	0	0	0.680203	0	-0.191865	0	0	0	-93.7728	858.673	54.2602	0.935858	0.006	-0.388341	0	1.12153	0
0.82	0	0	0	0.708997	0	-0.192518	0	0	0	-86.6546	829.712	51.9104	0.942204	0.006	-0.388825	0	1.15078	0
0.83	0	0	0	0.737792	0	-0.193171	0	0	0	-81.1233	804.855	49.5758	0.948378	0.006	-0.389255	0	1.28411	0
0.84	0	0	0	0.766587	0	-0.193823	0	0	0	-75.8742	782.943	47.6761	0.954508	0.006	-0.389534	0	1.40379	0
0.85	0	0	0	0.795381	0	-0.194476	0	0	0	-71.6323	763.412	45.0668	0.960549	0.006	-0.389618	0	1.55165	0
0.86	0	0	0	0.824176	0	-0.195128	0	0	0	-67.2073	747.924	42.2973	0.965822	0.006	-0.38948	0	1.87761	0
0.87	0	0	0	0.852971	0	-0.195781	0	0	0	-63.1561	737.228	39.8025	0.97076	0.006	-0.389577	0	2.03559	0
0.88	0	0	0	0.881765	0	-0.196434	0	0	0	-58.7081	732.483	36.7126	0.974602	0.006	-0.38918	0	2.47961	0
0.89	0	0	0	0.91056	0	-0.197086	0	0	0	-54.3212	729.568	34.7213	0.978044	0.006	-0.388465	0	2.68805	0
0.9	0	0	0	0.939355	0	-0.197739	0	0	0	-49.9954	725.906	33.4091	0.981319	0.006	-0.387932	0	2.92943	0
0.91	0	0	0	0.968149	0	-0.198391	0	0	0	-45.7763	722.473	32.9284	0.984384	0.006	-0.387642	0	3.15572	0
0.92	0	0	0	0.996944	0	-0.199044	0	0	0	-41.1224	719.39	33.0124	0.987229	0.006	-0.387156	0	3.37695	0
0.93	0	0	0	1.02574	0	-0.199697	0	0	0	-36.5219	716.11	33.4854	0.990079	0.006	-0.386974	0	3.6296	0
0.94	0	0	0	1.05453	0	-0.200349	0	0	0	-31.9824	714.035	34.3094	0.992626	0.006	-0.386636	0	3.57363	0
0.95	0	0	0	1.08333	0	-0.201002	0	0	0	-27.5497	714.889	35.0342	0.99489	0.006	-0.386166	0	3.70378	0
0.96	0	0	0	1.11212	0	-0.201654	0	0	0	-23.4451	718.719	35.4004	0.996812	0.006	-0.385544	0	3.97975	0
0.97	0	0	0	1.14092	0	-0.202307	0	0	0	-18.2877	724.868	36.0946	0.998416	0.006	-0.385168	0	4.22355	0
0.98	0	0	0	1.16971	0	-0.20296	0	0	0	-11.9171	736.038	37.4984	0.99962	0.006	-0.384791	0	4.41648	0
0.99	0	0	0	1.19851	0	-0.203612	0	0	0	-5.34822	751.098	38.9251	1.00065	0.006	-0.384446	0	4.68106	0
1	0	0	0	1.2273	0	-0.204265	0	0	0	2.14384	768.692	40.7715	1.00148	0.006	-0.384276	0	5.01466	0
1.01	0	0	0	1.2561	0	-0.204917	0	0	0	10.704	788.192	43.1213	1.00234	0.006	-0.384028	0	5.29524	0
1.02	0	0	0	1.28489	0	-0.20557	0	0	0	20.1034	807.937	46.0129	1.00302	0.006	-0.3837	0	5.4728	0
1.03	0	0	0	1.31369	0	-0.206223	0	0	0	31.2957	828.475	48.6984	1.00379	0.006	-0.383403	0	5.81319	0
1.04	0	0	0	1.34248	0	-0.206875	0	0	0	44.2199	852.188	51.3077	1.00427	0.006	-0.383042	0	6.1592	0
1.05	0	0	0	1.37127	0	-0.207528	0	0	0	57.3348	878.387	53.688	1.00482	0.006	-0.382922	0	6.4365	0
1.06	0	0	0	1.40007	0	-0.20818	0	0	0	70.2819	908.187	54.8858	1.00548	0.006	-0.382538	0	6.74325	0
1.07	0	0	0	1.42886	0	-0.208833	0	0	0	83.2748	938.171	53.8177	1.0061	0.006	-0.382149	0	7.03991	0
1.08	0	0	0	1.45766	0	-0.209485	0	0	0	93.8415	964.385	50.1098	1.00707	0.006	-0.381429	0	7.23384	0
1.09	0	0	0	1.48645	0	-0.210138	0	0	0	103.439	987.396	46.9131	1.0079	0.006	-0.380974	0	7.10243	0
1.1	6.96564	6.86646	0.976564	1.51412	0.0018	-0.211683	0	0.0775854	0	116.112	1007.42	47.6761	1.00847	0.006	-0.380753	0	6.20809	0
1.11	47.2336	46.936	10.6583	1.50899	0.006	-0.227606	0	0.139401	0	132.08	1021.27	53.2074	1.0089	0.006	-0.381032	0	4.68618	0
1.12	102.638	128.418	35.08	1.50081	0.006	-0.243541	0	-0.145359	0	147.949	1026.84	58.1283	1.00944	0.006	-0.381426	0	3.23986	0
1.13	84.1751	203.018	41.481	1.50497	0.006	-0.247422	0	-0.104499	0	162.125	1021.62	59.2117	1.01028	0.006	-0.381317	0	2.09478	0
